<mxfile host="Electron" modified="2023-11-05T22:24:58.135Z" agent="Mozilla/5.0 (Windows NT 10.0; Win64; x64) AppleWebKit/537.36 (KHTML, like Gecko) draw.io/22.0.3 Chrome/114.0.5735.289 Electron/25.8.4 Safari/537.36" etag="i8OsCbEQJKXTJV5b1W3F" version="22.0.3" type="device">
  <diagram name="1 oldal" id="WqdtZ3drCSx7J2Oqyrh4">
    <mxGraphModel dx="1434" dy="836" grid="1" gridSize="10" guides="1" tooltips="1" connect="1" arrows="1" fold="1" page="1" pageScale="1" pageWidth="827" pageHeight="1169" background="none" math="0" shadow="0">
      <root>
        <mxCell id="0" />
        <mxCell id="1" parent="0" />
        <mxCell id="SeJ5c7w3kmiwYNEgQJxg-9" value="RepülőNézet" style="shape=umlLifeline;perimeter=lifelinePerimeter;whiteSpace=wrap;html=1;container=1;dropTarget=0;collapsible=0;recursiveResize=0;outlineConnect=0;portConstraint=eastwest;newEdgeStyle={&quot;curved&quot;:0,&quot;rounded&quot;:0};" parent="1" vertex="1">
          <mxGeometry x="230" y="66" width="100" height="540" as="geometry" />
        </mxCell>
        <mxCell id="SeJ5c7w3kmiwYNEgQJxg-10" value="" style="html=1;points=[[0,0,0,0,5],[0,1,0,0,-5],[1,0,0,0,5],[1,1,0,0,-5]];perimeter=orthogonalPerimeter;outlineConnect=0;targetShapes=umlLifeline;portConstraint=eastwest;newEdgeStyle={&quot;curved&quot;:0,&quot;rounded&quot;:0};" parent="SeJ5c7w3kmiwYNEgQJxg-9" vertex="1">
          <mxGeometry x="45" y="100" width="10" height="390" as="geometry" />
        </mxCell>
        <mxCell id="SeJ5c7w3kmiwYNEgQJxg-20" value="validata(adat)" style="html=1;align=left;spacingLeft=2;endArrow=block;rounded=0;edgeStyle=orthogonalEdgeStyle;curved=0;rounded=0;" parent="SeJ5c7w3kmiwYNEgQJxg-9" source="SeJ5c7w3kmiwYNEgQJxg-10" target="SeJ5c7w3kmiwYNEgQJxg-10" edge="1">
          <mxGeometry relative="1" as="geometry">
            <mxPoint x="50" y="160" as="sourcePoint" />
            <Array as="points">
              <mxPoint x="100" y="110" />
              <mxPoint x="100" y="140" />
            </Array>
            <mxPoint x="110" y="210" as="targetPoint" />
          </mxGeometry>
        </mxCell>
        <mxCell id="SeJ5c7w3kmiwYNEgQJxg-11" value="" style="shape=umlLifeline;perimeter=lifelinePerimeter;whiteSpace=wrap;html=1;container=1;dropTarget=0;collapsible=0;recursiveResize=0;outlineConnect=0;portConstraint=eastwest;newEdgeStyle={&quot;curved&quot;:0,&quot;rounded&quot;:0};participant=umlActor;" parent="1" vertex="1">
          <mxGeometry x="110" y="66" width="20" height="474" as="geometry" />
        </mxCell>
        <mxCell id="SeJ5c7w3kmiwYNEgQJxg-14" value="" style="html=1;points=[[0,0,0,0,5],[0,1,0,0,-5],[1,0,0,0,5],[1,1,0,0,-5]];perimeter=orthogonalPerimeter;outlineConnect=0;targetShapes=umlLifeline;portConstraint=eastwest;newEdgeStyle={&quot;curved&quot;:0,&quot;rounded&quot;:0};" parent="SeJ5c7w3kmiwYNEgQJxg-11" vertex="1">
          <mxGeometry x="5" y="60" width="10" height="330" as="geometry" />
        </mxCell>
        <mxCell id="SeJ5c7w3kmiwYNEgQJxg-16" value="felület megnyitása" style="html=1;verticalAlign=bottom;endArrow=block;curved=0;rounded=0;" parent="1" edge="1">
          <mxGeometry x="-0.0335" y="10" width="80" relative="1" as="geometry">
            <mxPoint x="125" y="191" as="sourcePoint" />
            <mxPoint x="279.5" y="191" as="targetPoint" />
            <Array as="points">
              <mxPoint x="210" y="191" />
            </Array>
            <mxPoint as="offset" />
          </mxGeometry>
        </mxCell>
        <mxCell id="SeJ5c7w3kmiwYNEgQJxg-21" value="RepülőVezérlő" style="shape=umlLifeline;perimeter=lifelinePerimeter;whiteSpace=wrap;html=1;container=1;dropTarget=0;collapsible=0;recursiveResize=0;outlineConnect=0;portConstraint=eastwest;newEdgeStyle={&quot;curved&quot;:0,&quot;rounded&quot;:0};" parent="1" vertex="1">
          <mxGeometry x="360" y="66" width="115" height="495" as="geometry" />
        </mxCell>
        <mxCell id="SeJ5c7w3kmiwYNEgQJxg-22" value="RepülőAddDAO" style="shape=umlLifeline;perimeter=lifelinePerimeter;whiteSpace=wrap;html=1;container=1;dropTarget=0;collapsible=0;recursiveResize=0;outlineConnect=0;portConstraint=eastwest;newEdgeStyle={&quot;curved&quot;:0,&quot;rounded&quot;:0};" parent="1" vertex="1">
          <mxGeometry x="510" y="66" width="100" height="550" as="geometry" />
        </mxCell>
        <mxCell id="SeJ5c7w3kmiwYNEgQJxg-23" value="Valid" style="shape=umlFrame;whiteSpace=wrap;html=1;pointerEvents=0;" parent="1" vertex="1">
          <mxGeometry x="40" y="141" width="610" height="250" as="geometry" />
        </mxCell>
        <mxCell id="SeJ5c7w3kmiwYNEgQJxg-24" value="Invalid" style="shape=umlFrame;whiteSpace=wrap;html=1;pointerEvents=0;" parent="1" vertex="1">
          <mxGeometry x="40" y="391" width="610" height="110" as="geometry" />
        </mxCell>
        <mxCell id="SeJ5c7w3kmiwYNEgQJxg-26" value="" style="html=1;points=[[0,0,0,0,5],[0,1,0,0,-5],[1,0,0,0,5],[1,1,0,0,-5]];perimeter=orthogonalPerimeter;outlineConnect=0;targetShapes=umlLifeline;portConstraint=eastwest;newEdgeStyle={&quot;curved&quot;:0,&quot;rounded&quot;:0};" parent="1" vertex="1">
          <mxGeometry x="555" y="250" width="10" height="120" as="geometry" />
        </mxCell>
        <mxCell id="SeJ5c7w3kmiwYNEgQJxg-28" value="" style="html=1;points=[[0,0,0,0,5],[0,1,0,0,-5],[1,0,0,0,5],[1,1,0,0,-5]];perimeter=orthogonalPerimeter;outlineConnect=0;targetShapes=umlLifeline;portConstraint=eastwest;newEdgeStyle={&quot;curved&quot;:0,&quot;rounded&quot;:0};" parent="1" vertex="1">
          <mxGeometry x="412.5" y="220" width="10" height="210" as="geometry" />
        </mxCell>
        <mxCell id="SeJ5c7w3kmiwYNEgQJxg-36" value="repülő(adat)" style="html=1;verticalAlign=bottom;endArrow=block;curved=0;rounded=0;" parent="1" edge="1">
          <mxGeometry width="80" relative="1" as="geometry">
            <mxPoint x="285" y="246" as="sourcePoint" />
            <mxPoint x="420" y="246" as="targetPoint" />
            <Array as="points">
              <mxPoint x="410" y="246" />
            </Array>
          </mxGeometry>
        </mxCell>
        <mxCell id="SeJ5c7w3kmiwYNEgQJxg-37" value="hozzáad(adat)" style="html=1;verticalAlign=bottom;endArrow=block;curved=0;rounded=0;" parent="1" edge="1" target="SeJ5c7w3kmiwYNEgQJxg-26" source="SeJ5c7w3kmiwYNEgQJxg-28">
          <mxGeometry width="80" relative="1" as="geometry">
            <mxPoint x="430" y="293" as="sourcePoint" />
            <mxPoint x="555" y="293" as="targetPoint" />
            <Array as="points">
              <mxPoint x="490" y="270" />
            </Array>
          </mxGeometry>
        </mxCell>
        <mxCell id="SeJ5c7w3kmiwYNEgQJxg-38" value="return repülő" style="html=1;verticalAlign=bottom;endArrow=open;dashed=1;endSize=8;curved=0;rounded=0;" parent="1" source="SeJ5c7w3kmiwYNEgQJxg-26" target="SeJ5c7w3kmiwYNEgQJxg-28" edge="1">
          <mxGeometry relative="1" as="geometry">
            <mxPoint x="450" y="306" as="sourcePoint" />
            <mxPoint x="370" y="306" as="targetPoint" />
            <Array as="points">
              <mxPoint x="480" y="325" />
            </Array>
          </mxGeometry>
        </mxCell>
        <mxCell id="SeJ5c7w3kmiwYNEgQJxg-39" value="mutat (&quot;hozzáadva&quot;)" style="html=1;verticalAlign=bottom;endArrow=open;dashed=1;endSize=8;curved=0;rounded=0;" parent="1" edge="1" target="SeJ5c7w3kmiwYNEgQJxg-10" source="SeJ5c7w3kmiwYNEgQJxg-28">
          <mxGeometry x="-0.0745" relative="1" as="geometry">
            <mxPoint x="412.5" y="416" as="sourcePoint" />
            <mxPoint x="277.5" y="416" as="targetPoint" />
            <Array as="points">
              <mxPoint x="350" y="360" />
            </Array>
            <mxPoint as="offset" />
          </mxGeometry>
        </mxCell>
        <mxCell id="SeJ5c7w3kmiwYNEgQJxg-35" value="mutat(&quot;ervenytelen adat&quot;)" style="html=1;align=left;spacingLeft=2;endArrow=block;rounded=0;edgeStyle=orthogonalEdgeStyle;curved=0;rounded=0;" parent="1" edge="1">
          <mxGeometry x="0.6429" y="-10" relative="1" as="geometry">
            <mxPoint x="285" y="451" as="sourcePoint" />
            <Array as="points">
              <mxPoint x="340" y="451" />
              <mxPoint x="340" y="481" />
            </Array>
            <mxPoint as="offset" />
            <mxPoint x="285" y="481" as="targetPoint" />
          </mxGeometry>
        </mxCell>
        <mxCell id="l9nArhb8HgBhlXId-2-S-6" value="Admin" style="text;strokeColor=none;fillColor=none;align=left;verticalAlign=top;spacingLeft=4;spacingRight=4;overflow=hidden;rotatable=0;points=[[0,0.5],[1,0.5]];portConstraint=eastwest;whiteSpace=wrap;html=1;" parent="1" vertex="1">
          <mxGeometry x="100" y="40" width="80" height="26" as="geometry" />
        </mxCell>
        <mxCell id="69aCUqVF_vvPL0XDIFGD-6" value="" style="endArrow=open;dashed=1;html=1;rounded=0;" edge="1" parent="1" source="SeJ5c7w3kmiwYNEgQJxg-10" target="SeJ5c7w3kmiwYNEgQJxg-14">
          <mxGeometry width="160" relative="1" as="geometry">
            <mxPoint x="120" y="370" as="sourcePoint" />
            <mxPoint x="280" y="370" as="targetPoint" />
            <Array as="points">
              <mxPoint x="200" y="340" />
            </Array>
          </mxGeometry>
        </mxCell>
      </root>
    </mxGraphModel>
  </diagram>
</mxfile>
